<?xml version="1.0" encoding="UTF-8" standalone="no"?>
<!DOCTYPE svg PUBLIC "-//W3C//DTD SVG 1.1//EN" "http://www.w3.org/Graphics/SVG/1.1/DTD/svg11.dtd">
<svg xmlns="http://www.w3.org/2000/svg" version="1.1" viewBox="0.00 0.00 1254.00 1254.00">
<g stroke-width="1.00" fill="none" stroke-linecap="butt">
<path stroke="#92908f" vector-effect="non-scaling-stroke" d="
  M 196.84 181.11
  Q 171.78 205.86 146.35 237.08
  Q 92.79 302.85 58.81 379.47
  C 18.49 470.41 0.12 570.00 7.40 669.00
  C 15.11 773.85 49.25 875.07 107.29 962.69
  Q 148.15 1024.36 203.60 1075.13
  C 280.24 1145.31 371.03 1196.40 470.87 1222.92
  C 544.16 1242.39 621.15 1248.16 696.70 1239.36
  Q 819.18 1225.09 926.69 1165.52
  C 983.94 1133.81 1036.82 1092.06 1081.93 1044.44
  Q 1138.70 984.51 1177.21 912.27
  C 1240.32 793.87 1262.25 655.53 1239.23 523.50
  Q 1224.79 440.63 1188.72 365.24
  C 1147.20 278.45 1086.73 200.15 1011.99 139.55
  Q 952.37 91.20 881.35 58.66
  Q 793.09 18.23 696.45 7.37
  Q 661.14 3.40 630.50 3.28
  Q 556.51 3.00 483.96 20.27
  C 375.80 46.01 275.86 103.06 196.84 181.11"
/>
<path stroke="#91897c" vector-effect="non-scaling-stroke" d="
  M 719.05 1172.21
  C 860.89 1148.20 989.27 1069.20 1075.33 954.34
  Q 1147.33 858.25 1172.54 742.44
  C 1186.11 680.10 1188.53 614.27 1179.55 551.90
  Q 1167.33 466.96 1128.54 388.20
  C 1090.51 310.98 1036.32 242.33 969.71 188.79
  C 912.66 142.94 847.42 109.19 778.57 89.73
  Q 724.72 74.51 663.06 69.92
  C 629.56 67.43 596.26 68.75 563.88 72.65
  C 519.08 78.04 474.28 88.15 432.13 104.40
  Q 363.26 130.95 304.51 173.88
  C 228.68 229.30 167.65 303.76 125.78 388.40
  C 98.10 444.37 79.61 506.05 72.99 566.77
  Q 62.20 665.67 86.29 760.60
  C 102.88 825.95 131.07 886.89 170.06 941.19
  Q 248.85 1050.89 368.63 1114.65
  Q 428.44 1146.48 494.73 1163.07
  Q 607.04 1191.18 719.05 1172.21"
/>
<path stroke="#91897c" vector-effect="non-scaling-stroke" d="
  M 937.15 198.85
  C 928.40 192.89 921.52 187.59 912.92 182.17
  Q 895.44 171.15 889.54 167.74
  Q 826.17 131.16 756.59 114.23
  Q 692.20 98.56 629.76 98.69
  Q 563.83 98.84 500.02 114.21
  Q 442.37 128.09 387.91 156.05
  Q 287.82 207.43 216.04 295.94
  C 206.30 307.95 195.97 322.22 187.18 335.14
  C 143.42 399.51 113.56 473.30 101.66 550.37
  Q 88.54 635.38 104.12 719.70
  Q 125.14 833.48 191.42 926.59
  Q 222.38 970.09 260.72 1005.77
  Q 280.48 1024.16 294.01 1034.73
  C 301.00 1040.18 314.41 1050.90 323.99 1056.96
  C 330.98 1061.38 338.81 1067.10 346.61 1071.85
  Q 393.16 1100.25 440.64 1118.34
  Q 502.19 1141.80 568.90 1149.67
  Q 628.73 1156.72 688.59 1149.69
  Q 795.57 1137.12 889.82 1083.84
  C 982.52 1031.43 1058.31 951.61 1105.30 855.54
  Q 1135.25 794.32 1148.54 727.57
  Q 1156.77 686.23 1157.95 646.03
  Q 1159.24 602.10 1154.39 564.00
  C 1145.73 496.08 1122.67 430.08 1088.74 370.46
  C 1083.06 360.47 1077.50 352.14 1071.33 341.81
  Q 1069.82 339.29 1063.73 330.77
  Q 1063.63 330.63 1056.01 319.80
  Q 1050.02 311.29 1043.43 302.83
  Q 1008.53 258.00 969.62 224.77
  Q 958.52 215.30 945.83 205.33
  Q 940.38 201.05 937.15 198.85"
/>
<path stroke="#91897c" vector-effect="non-scaling-stroke" d="
  M 212.93 931.08
  C 250.09 979.52 295.88 1021.95 347.74 1055.00
  C 452.59 1121.80 577.14 1150.87 700.24 1133.21
  Q 806.93 1117.89 899.79 1060.79
  Q 917.61 1049.83 934.66 1037.18
  Q 1047.38 953.56 1102.81 825.82
  Q 1106.40 817.53 1110.10 807.80
  Q 1114.79 795.47 1116.79 789.55
  C 1148.28 696.32 1152.68 595.62 1127.10 501.01
  Q 1111.38 442.89 1083.01 390.44
  C 1049.24 328.03 1004.09 271.67 949.21 227.31
  Q 930.29 212.01 916.83 202.95
  Q 897.32 189.83 882.85 181.43
  C 803.83 135.55 714.35 112.82 622.51 113.74
  Q 572.81 114.24 519.04 125.41
  Q 467.90 136.04 419.97 157.36
  Q 358.71 184.61 306.29 226.78
  C 246.75 274.68 197.89 336.14 163.95 403.92
  Q 151.43 428.92 141.96 454.44
  Q 89.89 594.63 123.45 740.55
  Q 140.70 815.55 179.09 880.43
  Q 195.98 908.98 212.93 931.08"
/>
<path stroke="#fbd38f" vector-effect="non-scaling-stroke" d="
  M 365.63 235.42
  C 293.51 281.97 235.32 347.50 195.30 423.25
  Q 193.60 426.47 190.18 433.62
  C 187.32 439.58 184.25 444.84 182.03 451.55"
/>
<path stroke="#fce6ba" vector-effect="non-scaling-stroke" d="
  M 182.03 451.55
  Q 179.78 455.60 177.36 460.20
  Q 175.89 463.00 175.27 465.19
  C 174.09 469.42 172.87 473.47 171.01 478.05
  Q 164.52 493.96 159.07 512.78
  C 141.90 572.07 135.48 633.67 142.33 694.92
  C 143.34 703.94 145.06 711.72 145.77 719.97
  A 1.03 1.02 87.6 0 0 146.79 720.91
  Q 186.60 720.99 238.75 720.83
  Q 248.08 720.80 255.75 721.49
  Q 256.44 721.55 257.59 720.95"
/>
<path stroke="#91897c" vector-effect="non-scaling-stroke" d="
  M 257.59 720.95
  Q 257.92 721.36 258.25 721.35
  Q 264.84 721.18 271.23 721.17
  A 0.42 0.42 0.0 0 0 271.65 720.73
  C 268.05 601.97 320.41 483.42 414.15 409.54
  C 466.79 368.05 528.63 342.77 595.53 336.11
  Q 628.61 332.82 660.95 336.29
  Q 695.83 340.03 725.14 349.16
  Q 813.92 376.82 878.10 444.74
  Q 884.69 451.70 895.44 464.13
  A 0.56 0.55 51.9 0 0 896.18 464.22
  L 907.11 456.43"
/>
<path stroke="#eba278" vector-effect="non-scaling-stroke" d="
  M 907.11 456.43
  Q 909.35 454.65 911.69 452.79
  C 916.17 449.22 922.13 445.98 925.82 443.07
  Q 932.70 437.65 939.26 433.12
  Q 948.98 426.40 952.89 423.47
  Q 961.34 417.15 994.28 394.10
  A 0.69 0.68 -37.2 0 1 995.20 394.22
  L 1001.92 402.19
  A 0.57 0.57 0.0 0 1 1001.91 402.93
  C 990.76 415.36 984.07 422.77 978.86 428.62
  Q 967.21 441.70 956.04 454.81
  Q 942.16 471.11 928.70 486.66"
/>
<path stroke="#91897c" vector-effect="non-scaling-stroke" d="
  M 928.70 486.66
  L 919.85 496.84
  A 0.70 0.69 49.4 0 0 919.79 497.67
  Q 931.41 516.25 937.62 528.11
  C 968.57 587.16 984.51 653.78 982.30 720.87
  A 0.55 0.55 0.0 0 0 982.85 721.44
  L 996.07 721.29"
/>
<path stroke="#d68d79" vector-effect="non-scaling-stroke" d="
  M 996.07 721.29
  L 1107.90 721.32
  A 0.39 0.38 4.4 0 0 1108.28 721.00
  Q 1117.82 666.99 1113.75 612.26
  Q 1108.56 542.58 1082.61 476.22
  Q 1078.25 465.05 1073.44 453.17"
/>
<path stroke="#eba278" vector-effect="non-scaling-stroke" d="
  M 1073.44 453.17
  Q 1060.79 426.62 1054.81 415.69
  C 1015.03 343.09 957.99 279.85 888.23 235.19"
/>
<path stroke="#f4b378" vector-effect="non-scaling-stroke" d="
  M 888.23 235.19
  Q 873.02 225.60 857.19 217.08
  Q 795.77 184.04 727.31 170.42
  Q 676.42 160.29 626.41 160.34"
/>
<path stroke="#f7c180" vector-effect="non-scaling-stroke" d="
  M 626.41 160.34
  C 534.04 160.45 443.41 185.77 365.63 235.42"
/>
<path stroke="#f08620" vector-effect="non-scaling-stroke" d="
  M 626.41 160.34
  Q 627.97 173.58 626.94 186.91"
/>
<path stroke="#8d5b24" vector-effect="non-scaling-stroke" d="
  M 626.94 186.91
  C 619.64 186.87 616.42 193.25 616.51 199.75
  Q 616.78 220.00 616.55 281.75
  Q 616.53 286.74 617.24 288.96
  Q 619.31 295.50 626.21 296.21"
/>
<path stroke="#f08620" vector-effect="non-scaling-stroke" d="
  M 626.21 296.21
  C 627.82 304.10 627.26 312.26 626.46 320.24"
/>
<path stroke="#8d5b24" vector-effect="non-scaling-stroke" d="
  M 626.46 320.24
  C 616.59 320.61 606.12 320.84 596.89 321.67
  Q 528.62 327.81 467.45 359.03
  Q 458.83 363.42 450.16 367.90
  Q 447.01 369.53 440.79 373.77"
/>
<path stroke="#f7a537" vector-effect="non-scaling-stroke" d="
  M 440.79 373.77
  Q 438.32 368.78 435.87 363.90
  Q 435.41 362.98 432.46 358.12
  Q 430.66 355.16 429.70 351.98"
/>
<path stroke="#8d5b24" vector-effect="non-scaling-stroke" d="
  M 429.70 351.98
  Q 437.63 345.63 432.90 336.85
  Q 412.39 298.78 392.26 260.50
  Q 389.99 256.19 385.52 255.64
  Q 380.83 255.07 377.10 257.63"
/>
<path stroke="#f7a537" vector-effect="non-scaling-stroke" d="
  M 377.10 257.63
  Q 376.12 252.64 372.86 247.96
  Q 370.04 243.91 368.99 241.84
  Q 367.35 238.63 365.63 235.42"
/>
<path stroke="#91805e" vector-effect="non-scaling-stroke" d="
  M 257.59 720.95
  Q 257.54 711.73 257.67 702.50
  Q 258.56 639.08 279.20 579.19
  Q 290.11 547.56 305.06 519.31"
/>
<path stroke="#906d33" vector-effect="non-scaling-stroke" d="
  M 377.10 257.63
  Q 372.24 261.52 372.62 267.28
  C 372.82 270.23 374.34 272.70 375.81 275.42
  Q 392.17 305.78 414.79 348.72
  C 417.91 354.65 424.33 354.77 429.70 351.98"
/>
<path stroke="#906d33" vector-effect="non-scaling-stroke" d="
  M 440.79 373.77
  Q 434.60 377.64 428.29 381.53
  Q 419.90 386.71 399.31 403.60
  Q 354.06 440.71 322.74 489.48
  Q 318.40 496.24 311.85 507.03
  Q 310.31 509.55 308.48 513.18
  Q 306.68 516.71 305.06 519.31"
/>
<path stroke="#fbca71" vector-effect="non-scaling-stroke" d="
  M 305.06 519.31
  L 287.79 510.00"
/>
<path stroke="#906d33" vector-effect="non-scaling-stroke" d="
  M 287.79 510.00
  C 290.70 504.42 290.21 496.57 284.04 493.42
  C 271.28 486.88 250.39 475.19 213.71 455.11
  A 2.72 2.63 -25.5 0 0 212.81 454.81
  Q 203.59 453.41 200.13 461.78"
/>
<path stroke="#fbca71" vector-effect="non-scaling-stroke" d="
  M 200.13 461.78
  Q 191.50 457.42 188.93 455.82
  Q 185.35 453.60 182.03 451.55"
/>
<path stroke="#e46718" vector-effect="non-scaling-stroke" d="
  M 888.23 235.19
  C 887.06 236.60 885.97 238.02 885.26 239.82
  Q 882.49 246.79 878.35 253.07
  Q 877.77 253.93 876.73 257.64"
/>
<path stroke="#8a4e1c" vector-effect="non-scaling-stroke" d="
  M 876.73 257.64
  Q 868.46 252.83 862.31 259.58
  A 1.91 1.76 81.3 0 0 862.04 259.98
  L 820.13 339.56
  A 0.05 0.03 76.7 0 0 820.12 339.59
  Q 817.98 347.31 824.42 351.81"
/>
<path stroke="#e46718" vector-effect="non-scaling-stroke" d="
  M 824.42 351.81
  Q 823.52 355.41 821.79 358.75
  Q 817.87 366.32 813.01 373.46"
/>
<path stroke="#8a4e1c" vector-effect="non-scaling-stroke" d="
  M 813.01 373.46
  C 806.70 370.19 800.29 365.76 794.77 362.84
  C 767.52 348.44 737.91 336.55 707.78 329.92
  Q 691.89 326.41 688.88 325.89
  Q 674.90 323.45 657.16 321.66
  C 647.90 320.73 636.68 320.69 626.46 320.24"
/>
<path stroke="#8a4e1c" vector-effect="non-scaling-stroke" d="
  M 626.21 296.21
  C 633.34 296.80 637.86 291.32 637.84 284.75
  Q 637.74 241.63 637.84 198.53
  C 637.85 192.07 633.72 186.65 626.94 186.91"
/>
<path stroke="#c54119" vector-effect="non-scaling-stroke" d="
  M 1073.44 453.17
  Q 1067.78 453.46 1063.35 456.56
  Q 1057.68 460.53 1053.53 461.92"
/>
<path stroke="#803c1c" vector-effect="non-scaling-stroke" d="
  M 1053.53 461.92
  C 1050.42 454.74 1043.91 452.41 1037.40 456.51
  C 1031.53 460.21 1025.17 463.20 1019.26 466.56
  Q 993.90 480.99 969.00 494.51
  C 964.91 496.72 964.38 503.46 965.19 507.61"
/>
<path stroke="#c54119" vector-effect="non-scaling-stroke" d="
  M 965.19 507.61
  Q 964.91 510.76 960.88 512.77
  Q 958.22 514.09 956.51 515.34
  Q 952.95 517.93 948.74 519.37"
/>
<path stroke="#803c1c" vector-effect="non-scaling-stroke" d="
  M 948.74 519.37
  Q 942.12 507.62 935.19 495.82
  Q 932.29 490.89 928.70 486.66"
/>
<path stroke="#803c1c" vector-effect="non-scaling-stroke" d="
  M 907.11 456.43
  Q 890.07 436.15 885.00 431.25
  Q 876.22 422.76 874.71 421.20
  C 869.04 415.32 863.30 410.93 856.93 405.08
  Q 853.91 402.29 849.34 398.96
  C 844.62 395.52 839.28 390.78 832.98 386.95
  Q 831.19 385.86 827.76 383.26
  Q 820.63 377.87 813.01 373.46"
/>
<path stroke="#803c1c" vector-effect="non-scaling-stroke" d="
  M 824.42 351.81
  Q 832.67 356.65 838.91 349.80
  A 0.96 0.80 84.8 0 0 839.00 349.67
  L 881.03 269.85
  A 0.20 0.04 -79.1 0 1 881.05 269.80
  Q 883.10 262.07 876.73 257.64"
/>
<path stroke="#91805e" vector-effect="non-scaling-stroke" d="
  M 200.13 461.78
  Q 197.71 469.95 203.10 475.06
  A 1.33 1.14 -4.4 0 0 203.40 475.28
  Q 239.09 494.61 274.57 514.24
  Q 276.75 515.44 279.72 515.05
  Q 285.24 514.33 287.79 510.00"
/>
<path stroke="#6b281d" vector-effect="non-scaling-stroke" d="
  M 996.07 721.29
  Q 996.40 714.80 996.58 708.44
  Q 996.75 702.70 996.40 695.57
  Q 995.78 682.90 995.60 680.81
  Q 994.69 669.60 992.51 653.22
  C 988.75 624.91 981.34 596.92 971.46 570.26
  Q 967.40 559.32 965.69 554.60
  C 963.45 548.44 960.08 543.06 957.58 536.71
  Q 955.38 531.10 954.66 530.10
  Q 951.10 525.17 948.74 519.37"
/>
<path stroke="#6b281d" vector-effect="non-scaling-stroke" d="
  M 965.19 507.61
  Q 966.48 510.60 967.72 511.79
  Q 971.31 515.23 975.64 514.97
  Q 978.40 514.80 983.78 511.83
  Q 1002.68 501.39 1021.71 490.99
  Q 1029.63 486.65 1037.40 482.88
  C 1041.31 480.98 1044.74 478.32 1048.35 476.59
  C 1054.71 473.54 1055.88 468.13 1053.53 461.92"
/>
<path stroke="#91897c" vector-effect="non-scaling-stroke" d="
  M 635.01 673.12
  Q 600.66 664.79 572.66 684.14
  Q 556.99 694.98 547.78 712.39
  C 531.98 742.24 536.74 780.73 560.70 805.02
  Q 586.11 830.77 621.31 828.30
  C 634.10 827.40 645.29 823.37 656.37 816.07
  Q 663.45 811.41 665.19 809.70
  C 673.55 801.50 681.20 792.02 685.64 780.90
  Q 689.30 771.74 690.68 764.78
  Q 693.09 752.65 691.45 738.85"
/>
<path stroke="#d68d79" vector-effect="non-scaling-stroke" d="
  M 691.45 738.85
  Q 693.95 736.30 700.12 729.38
  Q 753.46 669.52 876.61 532.35
  C 889.17 518.37 902.09 504.69 911.36 494.10
  C 917.44 487.17 922.61 482.54 928.13 475.93
  Q 932.02 471.26 940.47 462.12
  Q 956.46 444.80 970.45 429.44
  Q 986.96 411.29 995.37 402.62
  Q 996.41 401.56 996.74 400.57
  A 0.68 0.67 81.1 0 0 995.70 399.81
  Q 981.59 410.22 971.02 418.33
  C 961.03 426.01 950.77 433.06 942.21 440.20
  C 938.56 443.24 932.51 447.05 927.35 451.04
  Q 921.09 455.87 880.89 486.40
  Q 729.07 601.72 698.24 624.99
  Q 673.76 643.49 666.40 649.12
  Q 662.40 652.18 660.92 653.19
  C 656.26 656.40 652.46 659.74 647.39 663.54
  Q 641.20 668.19 635.01 673.12"
/>
<path stroke="#6b281d" vector-effect="non-scaling-stroke" d="
  M 691.45 738.85
  Q 690.82 736.13 690.38 733.46
  C 689.48 727.96 687.16 721.99 685.50 717.49
  C 683.14 711.09 677.80 703.83 673.32 697.96
  Q 670.21 693.88 665.24 689.56
  Q 652.06 678.12 635.01 673.12"
/>
<path stroke="#91897c" vector-effect="non-scaling-stroke" d="
  M 615.8154 720.7144
  A 28.96 28.46 -89.0 0 0 586.8543 749.1733
  A 28.96 28.46 -89.0 0 0 614.8046 778.6256
  A 28.96 28.46 -89.0 0 0 643.7657 750.1667
  A 28.96 28.46 -89.0 0 0 615.8154 720.7144"
/>
</g>
<path fill="#26231f" d="
  M 196.84 181.11
  C 275.86 103.06 375.80 46.01 483.96 20.27
  Q 556.51 3.00 630.50 3.28
  Q 661.14 3.40 696.45 7.37
  Q 793.09 18.23 881.35 58.66
  Q 952.37 91.20 1011.99 139.55
  C 1086.73 200.15 1147.20 278.45 1188.72 365.24
  Q 1224.79 440.63 1239.23 523.50
  C 1262.25 655.53 1240.32 793.87 1177.21 912.27
  Q 1138.70 984.51 1081.93 1044.44
  C 1036.82 1092.06 983.94 1133.81 926.69 1165.52
  Q 819.18 1225.09 696.70 1239.36
  C 621.15 1248.16 544.16 1242.39 470.87 1222.92
  C 371.03 1196.40 280.24 1145.31 203.60 1075.13
  Q 148.15 1024.36 107.29 962.69
  C 49.25 875.07 15.11 773.85 7.40 669.00
  C 0.12 570.00 18.49 470.41 58.81 379.47
  Q 92.79 302.85 146.35 237.08
  Q 171.78 205.86 196.84 181.11
  Z
  M 719.05 1172.21
  C 860.89 1148.20 989.27 1069.20 1075.33 954.34
  Q 1147.33 858.25 1172.54 742.44
  C 1186.11 680.10 1188.53 614.27 1179.55 551.90
  Q 1167.33 466.96 1128.54 388.20
  C 1090.51 310.98 1036.32 242.33 969.71 188.79
  C 912.66 142.94 847.42 109.19 778.57 89.73
  Q 724.72 74.51 663.06 69.92
  C 629.56 67.43 596.26 68.75 563.88 72.65
  C 519.08 78.04 474.28 88.15 432.13 104.40
  Q 363.26 130.95 304.51 173.88
  C 228.68 229.30 167.65 303.76 125.78 388.40
  C 98.10 444.37 79.61 506.05 72.99 566.77
  Q 62.20 665.67 86.29 760.60
  C 102.88 825.95 131.07 886.89 170.06 941.19
  Q 248.85 1050.89 368.63 1114.65
  Q 428.44 1146.48 494.73 1163.07
  Q 607.04 1191.18 719.05 1172.21
  Z"
/>
<path fill="#fbeed8" d="
  M 1075.33 954.34
  C 989.27 1069.20 860.89 1148.20 719.05 1172.21
  Q 607.04 1191.18 494.73 1163.07
  Q 428.44 1146.48 368.63 1114.65
  Q 248.85 1050.89 170.06 941.19
  C 131.07 886.89 102.88 825.95 86.29 760.60
  Q 62.20 665.67 72.99 566.77
  C 79.61 506.05 98.10 444.37 125.78 388.40
  C 167.65 303.76 228.68 229.30 304.51 173.88
  Q 363.26 130.95 432.13 104.40
  C 474.28 88.15 519.08 78.04 563.88 72.65
  C 596.26 68.75 629.56 67.43 663.06 69.92
  Q 724.72 74.51 778.57 89.73
  C 847.42 109.19 912.66 142.94 969.71 188.79
  C 1036.32 242.33 1090.51 310.98 1128.54 388.20
  Q 1167.33 466.96 1179.55 551.90
  C 1188.53 614.27 1186.11 680.10 1172.54 742.44
  Q 1147.33 858.25 1075.33 954.34
  Z
  M 937.15 198.85
  C 928.40 192.89 921.52 187.59 912.92 182.17
  Q 895.44 171.15 889.54 167.74
  Q 826.17 131.16 756.59 114.23
  Q 692.20 98.56 629.76 98.69
  Q 563.83 98.84 500.02 114.21
  Q 442.37 128.09 387.91 156.05
  Q 287.82 207.43 216.04 295.94
  C 206.30 307.95 195.97 322.22 187.18 335.14
  C 143.42 399.51 113.56 473.30 101.66 550.37
  Q 88.54 635.38 104.12 719.70
  Q 125.14 833.48 191.42 926.59
  Q 222.38 970.09 260.72 1005.77
  Q 280.48 1024.16 294.01 1034.73
  C 301.00 1040.18 314.41 1050.90 323.99 1056.96
  C 330.98 1061.38 338.81 1067.10 346.61 1071.85
  Q 393.16 1100.25 440.64 1118.34
  Q 502.19 1141.80 568.90 1149.67
  Q 628.73 1156.72 688.59 1149.69
  Q 795.57 1137.12 889.82 1083.84
  C 982.52 1031.43 1058.31 951.61 1105.30 855.54
  Q 1135.25 794.32 1148.54 727.57
  Q 1156.77 686.23 1157.95 646.03
  Q 1159.24 602.10 1154.39 564.00
  C 1145.73 496.08 1122.67 430.08 1088.74 370.46
  C 1083.06 360.47 1077.50 352.14 1071.33 341.81
  Q 1069.82 339.29 1063.73 330.77
  Q 1063.63 330.63 1056.01 319.80
  Q 1050.02 311.29 1043.43 302.83
  Q 1008.53 258.00 969.62 224.77
  Q 958.52 215.30 945.83 205.33
  Q 940.38 201.05 937.15 198.85
  Z"
/>
<path fill="#26231f" d="
  M 937.15 198.85
  Q 940.38 201.05 945.83 205.33
  Q 958.52 215.30 969.62 224.77
  Q 1008.53 258.00 1043.43 302.83
  Q 1050.02 311.29 1056.01 319.80
  Q 1063.63 330.63 1063.73 330.77
  Q 1069.82 339.29 1071.33 341.81
  C 1077.50 352.14 1083.06 360.47 1088.74 370.46
  C 1122.67 430.08 1145.73 496.08 1154.39 564.00
  Q 1159.24 602.10 1157.95 646.03
  Q 1156.77 686.23 1148.54 727.57
  Q 1135.25 794.32 1105.30 855.54
  C 1058.31 951.61 982.52 1031.43 889.82 1083.84
  Q 795.57 1137.12 688.59 1149.69
  Q 628.73 1156.72 568.90 1149.67
  Q 502.19 1141.80 440.64 1118.34
  Q 393.16 1100.25 346.61 1071.85
  C 338.81 1067.10 330.98 1061.38 323.99 1056.96
  C 314.41 1050.90 301.00 1040.18 294.01 1034.73
  Q 280.48 1024.16 260.72 1005.77
  Q 222.38 970.09 191.42 926.59
  Q 125.14 833.48 104.12 719.70
  Q 88.54 635.38 101.66 550.37
  C 113.56 473.30 143.42 399.51 187.18 335.14
  C 195.97 322.22 206.30 307.95 216.04 295.94
  Q 287.82 207.43 387.91 156.05
  Q 442.37 128.09 500.02 114.21
  Q 563.83 98.84 629.76 98.69
  Q 692.20 98.56 756.59 114.23
  Q 826.17 131.16 889.54 167.74
  Q 895.44 171.15 912.92 182.17
  C 921.52 187.59 928.40 192.89 937.15 198.85
  Z
  M 212.93 931.08
  C 250.09 979.52 295.88 1021.95 347.74 1055.00
  C 452.59 1121.80 577.14 1150.87 700.24 1133.21
  Q 806.93 1117.89 899.79 1060.79
  Q 917.61 1049.83 934.66 1037.18
  Q 1047.38 953.56 1102.81 825.82
  Q 1106.40 817.53 1110.10 807.80
  Q 1114.79 795.47 1116.79 789.55
  C 1148.28 696.32 1152.68 595.62 1127.10 501.01
  Q 1111.38 442.89 1083.01 390.44
  C 1049.24 328.03 1004.09 271.67 949.21 227.31
  Q 930.29 212.01 916.83 202.95
  Q 897.32 189.83 882.85 181.43
  C 803.83 135.55 714.35 112.82 622.51 113.74
  Q 572.81 114.24 519.04 125.41
  Q 467.90 136.04 419.97 157.36
  Q 358.71 184.61 306.29 226.78
  C 246.75 274.68 197.89 336.14 163.95 403.92
  Q 151.43 428.92 141.96 454.44
  Q 89.89 594.63 123.45 740.55
  Q 140.70 815.55 179.09 880.43
  Q 195.98 908.98 212.93 931.08
  Z"
/>
<path fill="#fbeed8" d="
  M 347.74 1055.00
  C 295.88 1021.95 250.09 979.52 212.93 931.08
  Q 195.98 908.98 179.09 880.43
  Q 140.70 815.55 123.45 740.55
  Q 89.89 594.63 141.96 454.44
  Q 151.43 428.92 163.95 403.92
  C 197.89 336.14 246.75 274.68 306.29 226.78
  Q 358.71 184.61 419.97 157.36
  Q 467.90 136.04 519.04 125.41
  Q 572.81 114.24 622.51 113.74
  C 714.35 112.82 803.83 135.55 882.85 181.43
  Q 897.32 189.83 916.83 202.95
  Q 930.29 212.01 949.21 227.31
  C 1004.09 271.67 1049.24 328.03 1083.01 390.44
  Q 1111.38 442.89 1127.10 501.01
  C 1152.68 595.62 1148.28 696.32 1116.79 789.55
  Q 1114.79 795.47 1110.10 807.80
  Q 1106.40 817.53 1102.81 825.82
  Q 1047.38 953.56 934.66 1037.18
  Q 917.61 1049.83 899.79 1060.79
  Q 806.93 1117.89 700.24 1133.21
  C 577.14 1150.87 452.59 1121.80 347.74 1055.00
  Z
  M 365.63 235.42
  C 293.51 281.97 235.32 347.50 195.30 423.25
  Q 193.60 426.47 190.18 433.62
  C 187.32 439.58 184.25 444.84 182.03 451.55
  Q 179.78 455.60 177.36 460.20
  Q 175.89 463.00 175.27 465.19
  C 174.09 469.42 172.87 473.47 171.01 478.05
  Q 164.52 493.96 159.07 512.78
  C 141.90 572.07 135.48 633.67 142.33 694.92
  C 143.34 703.94 145.06 711.72 145.77 719.97
  A 1.03 1.02 87.6 0 0 146.79 720.91
  Q 186.60 720.99 238.75 720.83
  Q 248.08 720.80 255.75 721.49
  Q 256.44 721.55 257.59 720.95
  Q 257.92 721.36 258.25 721.35
  Q 264.84 721.18 271.23 721.17
  A 0.42 0.42 0.0 0 0 271.65 720.73
  C 268.05 601.97 320.41 483.42 414.15 409.54
  C 466.79 368.05 528.63 342.77 595.53 336.11
  Q 628.61 332.82 660.95 336.29
  Q 695.83 340.03 725.14 349.16
  Q 813.92 376.82 878.10 444.74
  Q 884.69 451.70 895.44 464.13
  A 0.56 0.55 51.9 0 0 896.18 464.22
  L 907.11 456.43
  Q 909.35 454.65 911.69 452.79
  C 916.17 449.22 922.13 445.98 925.82 443.07
  Q 932.70 437.65 939.26 433.12
  Q 948.98 426.40 952.89 423.47
  Q 961.34 417.15 994.28 394.10
  A 0.69 0.68 -37.2 0 1 995.20 394.22
  L 1001.92 402.19
  A 0.57 0.57 0.0 0 1 1001.91 402.93
  C 990.76 415.36 984.07 422.77 978.86 428.62
  Q 967.21 441.70 956.04 454.81
  Q 942.16 471.11 928.70 486.66
  L 919.85 496.84
  A 0.70 0.69 49.4 0 0 919.79 497.67
  Q 931.41 516.25 937.62 528.11
  C 968.57 587.16 984.51 653.78 982.30 720.87
  A 0.55 0.55 0.0 0 0 982.85 721.44
  L 996.07 721.29
  L 1107.90 721.32
  A 0.39 0.38 4.4 0 0 1108.28 721.00
  Q 1117.82 666.99 1113.75 612.26
  Q 1108.56 542.58 1082.61 476.22
  Q 1078.25 465.05 1073.44 453.17
  Q 1060.79 426.62 1054.81 415.69
  C 1015.03 343.09 957.99 279.85 888.23 235.19
  Q 873.02 225.60 857.19 217.08
  Q 795.77 184.04 727.31 170.42
  Q 676.42 160.29 626.41 160.34
  C 534.04 160.45 443.41 185.77 365.63 235.42
  Z
  M 635.01 673.12
  Q 600.66 664.79 572.66 684.14
  Q 556.99 694.98 547.78 712.39
  C 531.98 742.24 536.74 780.73 560.70 805.02
  Q 586.11 830.77 621.31 828.30
  C 634.10 827.40 645.29 823.37 656.37 816.07
  Q 663.45 811.41 665.19 809.70
  C 673.55 801.50 681.20 792.02 685.64 780.90
  Q 689.30 771.74 690.68 764.78
  Q 693.09 752.65 691.45 738.85
  Q 693.95 736.30 700.12 729.38
  Q 753.46 669.52 876.61 532.35
  C 889.17 518.37 902.09 504.69 911.36 494.10
  C 917.44 487.17 922.61 482.54 928.13 475.93
  Q 932.02 471.26 940.47 462.12
  Q 956.46 444.80 970.45 429.44
  Q 986.96 411.29 995.37 402.62
  Q 996.41 401.56 996.74 400.57
  A 0.68 0.67 81.1 0 0 995.70 399.81
  Q 981.59 410.22 971.02 418.33
  C 961.03 426.01 950.77 433.06 942.21 440.20
  C 938.56 443.24 932.51 447.05 927.35 451.04
  Q 921.09 455.87 880.89 486.40
  Q 729.07 601.72 698.24 624.99
  Q 673.76 643.49 666.40 649.12
  Q 662.40 652.18 660.92 653.19
  C 656.26 656.40 652.46 659.74 647.39 663.54
  Q 641.20 668.19 635.01 673.12
  Z"
/>
<path fill="#f39328" d="
  M 626.41 160.34
  Q 627.97 173.58 626.94 186.91
  C 619.64 186.87 616.42 193.25 616.51 199.75
  Q 616.78 220.00 616.55 281.75
  Q 616.53 286.74 617.24 288.96
  Q 619.31 295.50 626.21 296.21
  C 627.82 304.10 627.26 312.26 626.46 320.24
  C 616.59 320.61 606.12 320.84 596.89 321.67
  Q 528.62 327.81 467.45 359.03
  Q 458.83 363.42 450.16 367.90
  Q 447.01 369.53 440.79 373.77
  Q 438.32 368.78 435.87 363.90
  Q 435.41 362.98 432.46 358.12
  Q 430.66 355.16 429.70 351.98
  Q 437.63 345.63 432.90 336.85
  Q 412.39 298.78 392.26 260.50
  Q 389.99 256.19 385.52 255.64
  Q 380.83 255.07 377.10 257.63
  Q 376.12 252.64 372.86 247.96
  Q 370.04 243.91 368.99 241.84
  Q 367.35 238.63 365.63 235.42
  C 443.41 185.77 534.04 160.45 626.41 160.34
  Z"
/>
<path fill="#ed7818" d="
  M 888.23 235.19
  C 887.06 236.60 885.97 238.02 885.26 239.82
  Q 882.49 246.79 878.35 253.07
  Q 877.77 253.93 876.73 257.64
  Q 868.46 252.83 862.31 259.58
  A 1.91 1.76 81.3 0 0 862.04 259.98
  L 820.13 339.56
  A 0.05 0.03 76.7 0 0 820.12 339.59
  Q 817.98 347.31 824.42 351.81
  Q 823.52 355.41 821.79 358.75
  Q 817.87 366.32 813.01 373.46
  C 806.70 370.19 800.29 365.76 794.77 362.84
  C 767.52 348.44 737.91 336.55 707.78 329.92
  Q 691.89 326.41 688.88 325.89
  Q 674.90 323.45 657.16 321.66
  C 647.90 320.73 636.68 320.69 626.46 320.24
  C 627.26 312.26 627.82 304.10 626.21 296.21
  C 633.34 296.80 637.86 291.32 637.84 284.75
  Q 637.74 241.63 637.84 198.53
  C 637.85 192.07 633.72 186.65 626.94 186.91
  Q 627.97 173.58 626.41 160.34
  Q 676.42 160.29 727.31 170.42
  Q 795.77 184.04 857.19 217.08
  Q 873.02 225.60 888.23 235.19
  Z"
/>
<path fill="#26231f" d="
  M 626.94 186.91
  C 633.72 186.65 637.85 192.07 637.84 198.53
  Q 637.74 241.63 637.84 284.75
  C 637.86 291.32 633.34 296.80 626.21 296.21
  Q 619.31 295.50 617.24 288.96
  Q 616.53 286.74 616.55 281.75
  Q 616.78 220.00 616.51 199.75
  C 616.42 193.25 619.64 186.87 626.94 186.91
  Z"
/>
<path fill="#da5518" d="
  M 888.23 235.19
  C 957.99 279.85 1015.03 343.09 1054.81 415.69
  Q 1060.79 426.62 1073.44 453.17
  Q 1067.78 453.46 1063.35 456.56
  Q 1057.68 460.53 1053.53 461.92
  C 1050.42 454.74 1043.91 452.41 1037.40 456.51
  C 1031.53 460.21 1025.17 463.20 1019.26 466.56
  Q 993.90 480.99 969.00 494.51
  C 964.91 496.72 964.38 503.46 965.19 507.61
  Q 964.91 510.76 960.88 512.77
  Q 958.22 514.09 956.51 515.34
  Q 952.95 517.93 948.74 519.37
  Q 942.12 507.62 935.19 495.82
  Q 932.29 490.89 928.70 486.66
  Q 942.16 471.11 956.04 454.81
  Q 967.21 441.70 978.86 428.62
  C 984.07 422.77 990.76 415.36 1001.91 402.93
  A 0.57 0.57 0.0 0 0 1001.92 402.19
  L 995.20 394.22
  A 0.69 0.68 -37.2 0 0 994.28 394.10
  Q 961.34 417.15 952.89 423.47
  Q 948.98 426.40 939.26 433.12
  Q 932.70 437.65 925.82 443.07
  C 922.13 445.98 916.17 449.22 911.69 452.79
  Q 909.35 454.65 907.11 456.43
  Q 890.07 436.15 885.00 431.25
  Q 876.22 422.76 874.71 421.20
  C 869.04 415.32 863.30 410.93 856.93 405.08
  Q 853.91 402.29 849.34 398.96
  C 844.62 395.52 839.28 390.78 832.98 386.95
  Q 831.19 385.86 827.76 383.26
  Q 820.63 377.87 813.01 373.46
  Q 817.87 366.32 821.79 358.75
  Q 823.52 355.41 824.42 351.81
  Q 832.67 356.65 838.91 349.80
  A 0.96 0.80 84.8 0 0 839.00 349.67
  L 881.03 269.85
  A 0.20 0.04 -79.1 0 1 881.05 269.80
  Q 883.10 262.07 876.73 257.64
  Q 877.77 253.93 878.35 253.07
  Q 882.49 246.79 885.26 239.82
  C 885.97 238.02 887.06 236.60 888.23 235.19
  Z"
/>
<path fill="#fab746" d="
  M 365.63 235.42
  Q 367.35 238.63 368.99 241.84
  Q 370.04 243.91 372.86 247.96
  Q 376.12 252.64 377.10 257.63
  Q 372.24 261.52 372.62 267.28
  C 372.82 270.23 374.34 272.70 375.81 275.42
  Q 392.17 305.78 414.79 348.72
  C 417.91 354.65 424.33 354.77 429.70 351.98
  Q 430.66 355.16 432.46 358.12
  Q 435.41 362.98 435.87 363.90
  Q 438.32 368.78 440.79 373.77
  Q 434.60 377.64 428.29 381.53
  Q 419.90 386.71 399.31 403.60
  Q 354.06 440.71 322.74 489.48
  Q 318.40 496.24 311.85 507.03
  Q 310.31 509.55 308.48 513.18
  Q 306.68 516.71 305.06 519.31
  L 287.79 510.00
  C 290.70 504.42 290.21 496.57 284.04 493.42
  C 271.28 486.88 250.39 475.19 213.71 455.11
  A 2.72 2.63 -25.5 0 0 212.81 454.81
  Q 203.59 453.41 200.13 461.78
  Q 191.50 457.42 188.93 455.82
  Q 185.35 453.60 182.03 451.55
  C 184.25 444.84 187.32 439.58 190.18 433.62
  Q 193.60 426.47 195.30 423.25
  C 235.32 347.50 293.51 281.97 365.63 235.42
  Z"
/>
<path fill="#26231f" d="
  M 429.70 351.98
  C 424.33 354.77 417.91 354.65 414.79 348.72
  Q 392.17 305.78 375.81 275.42
  C 374.34 272.70 372.82 270.23 372.62 267.28
  Q 372.24 261.52 377.10 257.63
  Q 380.83 255.07 385.52 255.64
  Q 389.99 256.19 392.26 260.50
  Q 412.39 298.78 432.90 336.85
  Q 437.63 345.63 429.70 351.98
  Z"
/>
<path fill="#26231f" d="
  M 876.73 257.64
  Q 883.10 262.07 881.05 269.80
  A 0.20 0.04 -79.1 0 0 881.03 269.85
  L 839.00 349.67
  A 0.96 0.80 84.8 0 1 838.91 349.80
  Q 832.67 356.65 824.42 351.81
  Q 817.98 347.31 820.12 339.59
  A 0.05 0.03 76.7 0 1 820.13 339.56
  L 862.04 259.98
  A 1.91 1.76 81.3 0 1 862.31 259.58
  Q 868.46 252.83 876.73 257.64
  Z"
/>
<path fill="#26231f" d="
  M 626.46 320.24
  C 636.68 320.69 647.90 320.73 657.16 321.66
  Q 674.90 323.45 688.88 325.89
  Q 691.89 326.41 707.78 329.92
  C 737.91 336.55 767.52 348.44 794.77 362.84
  C 800.29 365.76 806.70 370.19 813.01 373.46
  Q 820.63 377.87 827.76 383.26
  Q 831.19 385.86 832.98 386.95
  C 839.28 390.78 844.62 395.52 849.34 398.96
  Q 853.91 402.29 856.93 405.08
  C 863.30 410.93 869.04 415.32 874.71 421.20
  Q 876.22 422.76 885.00 431.25
  Q 890.07 436.15 907.11 456.43
  L 896.18 464.22
  A 0.56 0.55 51.9 0 1 895.44 464.13
  Q 884.69 451.70 878.10 444.74
  Q 813.92 376.82 725.14 349.16
  Q 695.83 340.03 660.95 336.29
  Q 628.61 332.82 595.53 336.11
  C 528.63 342.77 466.79 368.05 414.15 409.54
  C 320.41 483.42 268.05 601.97 271.65 720.73
  A 0.42 0.42 0.0 0 1 271.23 721.17
  Q 264.84 721.18 258.25 721.35
  Q 257.92 721.36 257.59 720.95
  Q 257.54 711.73 257.67 702.50
  Q 258.56 639.08 279.20 579.19
  Q 290.11 547.56 305.06 519.31
  Q 306.68 516.71 308.48 513.18
  Q 310.31 509.55 311.85 507.03
  Q 318.40 496.24 322.74 489.48
  Q 354.06 440.71 399.31 403.60
  Q 419.90 386.71 428.29 381.53
  Q 434.60 377.64 440.79 373.77
  Q 447.01 369.53 450.16 367.90
  Q 458.83 363.42 467.45 359.03
  Q 528.62 327.81 596.89 321.67
  C 606.12 320.84 616.59 320.61 626.46 320.24
  Z"
/>
<path fill="#b02c1a" d="
  M 691.45 738.85
  Q 690.82 736.13 690.38 733.46
  C 689.48 727.96 687.16 721.99 685.50 717.49
  C 683.14 711.09 677.80 703.83 673.32 697.96
  Q 670.21 693.88 665.24 689.56
  Q 652.06 678.12 635.01 673.12
  Q 641.20 668.19 647.39 663.54
  C 652.46 659.74 656.26 656.40 660.92 653.19
  Q 662.40 652.18 666.40 649.12
  Q 673.76 643.49 698.24 624.99
  Q 729.07 601.72 880.89 486.40
  Q 921.09 455.87 927.35 451.04
  C 932.51 447.05 938.56 443.24 942.21 440.20
  C 950.77 433.06 961.03 426.01 971.02 418.33
  Q 981.59 410.22 995.70 399.81
  A 0.68 0.67 81.1 0 1 996.74 400.57
  Q 996.41 401.56 995.37 402.62
  Q 986.96 411.29 970.45 429.44
  Q 956.46 444.80 940.47 462.12
  Q 932.02 471.26 928.13 475.93
  C 922.61 482.54 917.44 487.17 911.36 494.10
  C 902.09 504.69 889.17 518.37 876.61 532.35
  Q 753.46 669.52 700.12 729.38
  Q 693.95 736.30 691.45 738.85
  Z"
/>
<path fill="#fcdd9c" d="
  M 182.03 451.55
  Q 185.35 453.60 188.93 455.82
  Q 191.50 457.42 200.13 461.78
  Q 197.71 469.95 203.10 475.06
  A 1.33 1.14 -4.4 0 0 203.40 475.28
  Q 239.09 494.61 274.57 514.24
  Q 276.75 515.44 279.72 515.05
  Q 285.24 514.33 287.79 510.00
  L 305.06 519.31
  Q 290.11 547.56 279.20 579.19
  Q 258.56 639.08 257.67 702.50
  Q 257.54 711.73 257.59 720.95
  Q 256.44 721.55 255.75 721.49
  Q 248.08 720.80 238.75 720.83
  Q 186.60 720.99 146.79 720.91
  A 1.03 1.02 87.6 0 1 145.77 719.97
  C 145.06 711.72 143.34 703.94 142.33 694.92
  C 135.48 633.67 141.90 572.07 159.07 512.78
  Q 164.52 493.96 171.01 478.05
  C 172.87 473.47 174.09 469.42 175.27 465.19
  Q 175.89 463.00 177.36 460.20
  Q 179.78 455.60 182.03 451.55
  Z"
/>
<path fill="#b02c1a" d="
  M 1073.44 453.17
  Q 1078.25 465.05 1082.61 476.22
  Q 1108.56 542.58 1113.75 612.26
  Q 1117.82 666.99 1108.28 721.00
  A 0.39 0.38 4.4 0 1 1107.90 721.32
  L 996.07 721.29
  Q 996.40 714.80 996.58 708.44
  Q 996.75 702.70 996.40 695.57
  Q 995.78 682.90 995.60 680.81
  Q 994.69 669.60 992.51 653.22
  C 988.75 624.91 981.34 596.92 971.46 570.26
  Q 967.40 559.32 965.69 554.60
  C 963.45 548.44 960.08 543.06 957.58 536.71
  Q 955.38 531.10 954.66 530.10
  Q 951.10 525.17 948.74 519.37
  Q 952.95 517.93 956.51 515.34
  Q 958.22 514.09 960.88 512.77
  Q 964.91 510.76 965.19 507.61
  Q 966.48 510.60 967.72 511.79
  Q 971.31 515.23 975.64 514.97
  Q 978.40 514.80 983.78 511.83
  Q 1002.68 501.39 1021.71 490.99
  Q 1029.63 486.65 1037.40 482.88
  C 1041.31 480.98 1044.74 478.32 1048.35 476.59
  C 1054.71 473.54 1055.88 468.13 1053.53 461.92
  Q 1057.68 460.53 1063.35 456.56
  Q 1067.78 453.46 1073.44 453.17
  Z"
/>
<path fill="#26231f" d="
  M 287.79 510.00
  Q 285.24 514.33 279.72 515.05
  Q 276.75 515.44 274.57 514.24
  Q 239.09 494.61 203.40 475.28
  A 1.33 1.14 -4.4 0 1 203.10 475.06
  Q 197.71 469.95 200.13 461.78
  Q 203.59 453.41 212.81 454.81
  A 2.72 2.63 -25.5 0 1 213.71 455.11
  C 250.39 475.19 271.28 486.88 284.04 493.42
  C 290.21 496.57 290.70 504.42 287.79 510.00
  Z"
/>
<path fill="#26231f" d="
  M 1053.53 461.92
  C 1055.88 468.13 1054.71 473.54 1048.35 476.59
  C 1044.74 478.32 1041.31 480.98 1037.40 482.88
  Q 1029.63 486.65 1021.71 490.99
  Q 1002.68 501.39 983.78 511.83
  Q 978.40 514.80 975.64 514.97
  Q 971.31 515.23 967.72 511.79
  Q 966.48 510.60 965.19 507.61
  C 964.38 503.46 964.91 496.72 969.00 494.51
  Q 993.90 480.99 1019.26 466.56
  C 1025.17 463.20 1031.53 460.21 1037.40 456.51
  C 1043.91 452.41 1050.42 454.74 1053.53 461.92
  Z"
/>
<path fill="#26231f" d="
  M 928.70 486.66
  Q 932.29 490.89 935.19 495.82
  Q 942.12 507.62 948.74 519.37
  Q 951.10 525.17 954.66 530.10
  Q 955.38 531.10 957.58 536.71
  C 960.08 543.06 963.45 548.44 965.69 554.60
  Q 967.40 559.32 971.46 570.26
  C 981.34 596.92 988.75 624.91 992.51 653.22
  Q 994.69 669.60 995.60 680.81
  Q 995.78 682.90 996.40 695.57
  Q 996.75 702.70 996.58 708.44
  Q 996.40 714.80 996.07 721.29
  L 982.85 721.44
  A 0.55 0.55 0.0 0 1 982.30 720.87
  C 984.51 653.78 968.57 587.16 937.62 528.11
  Q 931.41 516.25 919.79 497.67
  A 0.70 0.69 49.4 0 1 919.85 496.84
  L 928.70 486.66
  Z"
/>
<path fill="#26231f" d="
  M 635.01 673.12
  Q 652.06 678.12 665.24 689.56
  Q 670.21 693.88 673.32 697.96
  C 677.80 703.83 683.14 711.09 685.50 717.49
  C 687.16 721.99 689.48 727.96 690.38 733.46
  Q 690.82 736.13 691.45 738.85
  Q 693.09 752.65 690.68 764.78
  Q 689.30 771.74 685.64 780.90
  C 681.20 792.02 673.55 801.50 665.19 809.70
  Q 663.45 811.41 656.37 816.07
  C 645.29 823.37 634.10 827.40 621.31 828.30
  Q 586.11 830.77 560.70 805.02
  C 536.74 780.73 531.98 742.24 547.78 712.39
  Q 556.99 694.98 572.66 684.14
  Q 600.66 664.79 635.01 673.12
  Z
  M 615.8154 720.7144
  A 28.96 28.46 -89.0 0 0 586.8543 749.1733
  A 28.96 28.46 -89.0 0 0 614.8046 778.6256
  A 28.96 28.46 -89.0 0 0 643.7657 750.1667
  A 28.96 28.46 -89.0 0 0 615.8154 720.7144
  Z"
/>
<ellipse fill="#fbeed8" cx="0.00" cy="0.00" transform="translate(615.31,749.67) rotate(-89.0)" rx="28.96" ry="28.46"/>
</svg>
